<svg width="297" height="59" viewBox="0 0 297 59" fill="none" xmlns="http://www.w3.org/2000/svg">
<path d="M94.4314 47.4118L87.9514 19.9078L89.4634 19.5478V54.8998H79.0234V3.77979H91.2634L98.8954 32.9398H96.3034L103.935 3.77979H116.175V54.8998H105.735V19.5478L107.247 19.9078L100.767 47.4118H94.4314Z" fill="black"/>
<path d="M135.875 55.7638C132.275 55.7638 129.059 54.9478 126.227 53.3158C123.443 51.6358 121.259 49.2838 119.675 46.2598C118.091 43.2358 117.299 39.6598 117.299 35.5318C117.299 31.5478 118.067 28.0438 119.603 25.0198C121.187 21.9478 123.371 19.5718 126.155 17.8918C128.939 16.1638 132.155 15.2998 135.803 15.2998C139.403 15.2998 142.595 16.1638 145.379 17.8918C148.163 19.5718 150.347 21.9478 151.931 25.0198C153.515 28.0918 154.307 31.6678 154.307 35.7478V38.4118H128.531C128.771 40.9078 129.563 42.8278 130.907 44.1718C132.299 45.5158 134.051 46.1878 136.163 46.1878C137.747 46.1878 139.091 45.8278 140.195 45.1078C141.347 44.3398 142.139 43.3078 142.571 42.0118L153.443 42.8038C152.051 47.0278 149.891 50.2438 146.963 52.4518C144.035 54.6598 140.339 55.7638 135.875 55.7638ZM128.747 31.3558H142.499C142.307 29.1958 141.587 27.5878 140.339 26.5318C139.139 25.4278 137.579 24.8758 135.659 24.8758C133.739 24.8758 132.179 25.4278 130.979 26.5318C129.779 27.6358 129.035 29.2438 128.747 31.3558Z" fill="black"/>
<path d="M163.015 54.8998V16.1638H170.935L171.727 26.3878L171.079 26.4598C171.463 23.0518 172.423 20.4838 173.959 18.7558C175.495 17.0278 177.823 16.1638 180.943 16.1638H189.871V24.9478H181.879C180.055 24.9478 178.567 25.2598 177.415 25.8838C176.263 26.4598 175.399 27.3478 174.823 28.5478C174.295 29.6998 174.031 31.1878 174.031 33.0118V54.8998H163.015ZM154.015 54.8998V46.3318H185.695V54.8998H154.015ZM154.015 24.7318V16.1638H169.711V24.7318H154.015Z" fill="black"/>
<path d="M191.787 54.8998V3.77979H207.915C213.675 3.77979 218.091 4.90778 221.163 7.16378C224.283 9.41978 225.843 12.8278 225.843 17.3878C225.843 19.4518 225.411 21.2998 224.547 22.9318C223.683 24.5638 222.315 25.8838 220.443 26.8918C218.619 27.8998 216.195 28.5478 213.171 28.8358V28.2598C216.675 28.4518 219.507 29.0998 221.667 30.2038C223.875 31.3078 225.483 32.7958 226.491 34.6678C227.499 36.4918 228.003 38.6038 228.003 41.0038C228.003 45.6598 226.419 49.1398 223.251 51.4438C220.083 53.7478 215.475 54.8998 209.427 54.8998H191.787ZM203.379 44.8198L209.427 44.7478C211.635 44.6998 213.291 44.2198 214.395 43.3078C215.547 42.3958 216.123 41.1238 216.123 39.4918C216.123 37.7158 215.547 36.3478 214.395 35.3878C213.291 34.3798 211.635 33.8758 209.427 33.8758H203.379V44.8198ZM203.379 24.1558H207.771C209.835 24.1558 211.371 23.6998 212.379 22.7878C213.435 21.8758 213.963 20.5798 213.963 18.8998C213.963 17.2678 213.435 16.0198 212.379 15.1558C211.371 14.2918 209.835 13.8598 207.771 13.8598H203.379V24.1558Z" fill="black"/>
<path d="M247.271 55.7638C243.671 55.7638 240.455 54.9478 237.623 53.3158C234.839 51.6358 232.655 49.2838 231.071 46.2598C229.487 43.2358 228.695 39.6598 228.695 35.5318C228.695 31.5478 229.463 28.0438 230.999 25.0198C232.583 21.9478 234.767 19.5718 237.551 17.8918C240.335 16.1638 243.551 15.2998 247.199 15.2998C250.799 15.2998 253.991 16.1638 256.775 17.8918C259.559 19.5718 261.743 21.9478 263.327 25.0198C264.911 28.0918 265.703 31.6678 265.703 35.7478V38.4118H239.927C240.167 40.9078 240.959 42.8278 242.303 44.1718C243.695 45.5158 245.447 46.1878 247.559 46.1878C249.143 46.1878 250.487 45.8278 251.591 45.1078C252.743 44.3398 253.535 43.3078 253.967 42.0118L264.839 42.8038C263.447 47.0278 261.287 50.2438 258.359 52.4518C255.431 54.6598 251.735 55.7638 247.271 55.7638ZM240.143 31.3558H253.895C253.703 29.1958 252.983 27.5878 251.735 26.5318C250.535 25.4278 248.975 24.8758 247.055 24.8758C245.135 24.8758 243.575 25.4278 242.375 26.5318C241.175 27.6358 240.431 29.2438 240.143 31.3558Z" fill="black"/>
<path d="M284.443 54.8998C279.883 54.8998 276.547 53.8678 274.435 51.8038C272.323 49.7398 271.267 46.5718 271.267 42.2998V7.09179H282.283V41.0758C282.283 42.8518 282.715 44.1718 283.579 45.0358C284.443 45.8998 285.763 46.3318 287.539 46.3318H296.251V54.8998H284.443ZM265.683 24.7318V16.1638H296.251V24.7318H265.683Z" fill="black"/>
<rect x="19.6016" width="6.5333" height="6.5333" fill="black"/>
<rect opacity="0.75" x="13.0664" width="6.5333" height="6.5333" fill="black"/>
<rect opacity="0.5" x="6.5332" width="6.5333" height="6.5333" fill="black"/>
<rect opacity="0.25" width="6.5333" height="6.5333" fill="black"/>
<rect width="6.5333" height="6.5333" transform="matrix(1 0 0 -1 19.6016 58.7998)" fill="black"/>
<rect opacity="0.75" width="6.5333" height="6.5333" transform="matrix(1 0 0 -1 13.0664 58.7998)" fill="black"/>
<rect opacity="0.5" width="6.5333" height="6.5333" transform="matrix(1 0 0 -1 6.5332 58.7998)" fill="black"/>
<rect opacity="0.25" width="6.5333" height="6.5333" transform="matrix(1 0 0 -1 0 58.7998)" fill="black"/>
<rect x="32.668" y="13.0669" width="6.5333" height="6.5333" fill="black"/>
<rect opacity="0.75" x="26.1328" y="13.0669" width="6.5333" height="6.5333" fill="black"/>
<rect opacity="0.5" x="19.6016" y="13.0669" width="6.5333" height="6.5333" fill="black"/>
<rect opacity="0.25" x="13.0664" y="13.0669" width="6.5333" height="6.5333" fill="black"/>
<rect width="6.5333" height="6.5333" transform="matrix(1 0 0 -1 32.668 45.7329)" fill="black"/>
<rect opacity="0.75" width="6.5333" height="6.5333" transform="matrix(1 0 0 -1 26.1328 45.7329)" fill="black"/>
<rect opacity="0.5" width="6.5333" height="6.5333" transform="matrix(1 0 0 -1 19.6016 45.7329)" fill="black"/>
<rect opacity="0.25" width="6.5333" height="6.5333" transform="matrix(1 0 0 -1 13.0664 45.7329)" fill="black"/>
<rect x="39.2012" y="6.5332" width="6.5333" height="6.5333" fill="black"/>
<rect width="6.5333" height="6.5333" transform="matrix(1 0 0 -1 39.2012 52.2666)" fill="black"/>
<rect x="52.2676" y="19.6001" width="6.5333" height="6.5333" fill="black"/>
<rect x="58.8008" y="26.1338" width="6.5333" height="6.5333" fill="black"/>
<rect width="6.5333" height="6.5333" transform="matrix(1 0 0 -1 52.2676 39.1997)" fill="black"/>
<rect x="26.1328" width="6.5333" height="6.5333" fill="black"/>
<rect width="6.5333" height="6.5333" transform="matrix(1 0 0 -1 26.1328 58.7998)" fill="black"/>
<rect x="39.2012" y="13.0669" width="6.5333" height="6.5333" fill="black"/>
<rect width="6.5333" height="6.5333" transform="matrix(1 0 0 -1 39.2012 45.7329)" fill="black"/>
<rect x="26.1328" y="6.5332" width="6.5333" height="6.5333" fill="black"/>
<rect opacity="0.75" x="19.6016" y="6.5332" width="6.5333" height="6.5333" fill="black"/>
<rect opacity="0.5" x="13.0664" y="6.5332" width="6.5333" height="6.5333" fill="black"/>
<rect opacity="0.25" x="6.5332" y="6.5332" width="6.5333" height="6.5333" fill="black"/>
<rect width="6.5333" height="6.5333" transform="matrix(1 0 0 -1 26.1328 52.2666)" fill="black"/>
<rect opacity="0.75" width="6.5333" height="6.5333" transform="matrix(1 0 0 -1 19.6016 52.2666)" fill="black"/>
<rect opacity="0.5" width="6.5333" height="6.5333" transform="matrix(1 0 0 -1 13.0664 52.2666)" fill="black"/>
<rect opacity="0.25" width="6.5333" height="6.5333" transform="matrix(1 0 0 -1 6.5332 52.2666)" fill="black"/>
<rect x="39.2012" y="19.6001" width="6.5333" height="6.5333" fill="black"/>
<rect opacity="0.75" x="32.668" y="19.6001" width="6.5333" height="6.5333" fill="black"/>
<rect opacity="0.5" x="26.1328" y="19.6001" width="6.5333" height="6.5333" fill="black"/>
<rect opacity="0.25" x="19.6016" y="19.6001" width="6.5333" height="6.5333" fill="black"/>
<rect x="45.7324" y="26.1338" width="6.5333" height="6.5333" fill="black"/>
<rect opacity="0.75" x="39.2012" y="26.1338" width="6.5333" height="6.5333" fill="black"/>
<rect opacity="0.5" x="32.668" y="26.1338" width="6.5333" height="6.5333" fill="black"/>
<rect opacity="0.25" x="26.1328" y="26.1338" width="6.5333" height="6.5333" fill="black"/>
<rect width="6.5333" height="6.5333" transform="matrix(1 0 0 -1 39.2012 39.1997)" fill="black"/>
<rect opacity="0.75" width="6.5333" height="6.5333" transform="matrix(1 0 0 -1 32.668 39.1997)" fill="black"/>
<rect opacity="0.5" width="6.5333" height="6.5333" transform="matrix(1 0 0 -1 26.1328 39.1997)" fill="black"/>
<rect opacity="0.25" width="6.5333" height="6.5333" transform="matrix(1 0 0 -1 19.6016 39.1997)" fill="black"/>
<rect x="32.668" width="6.5333" height="6.5333" fill="black"/>
<rect width="6.5333" height="6.5333" transform="matrix(1 0 0 -1 32.668 58.7998)" fill="black"/>
<rect x="45.7324" y="13.0669" width="6.5333" height="6.5333" fill="black"/>
<rect width="6.5333" height="6.5333" transform="matrix(1 0 0 -1 45.7324 45.7329)" fill="black"/>
<rect x="32.668" y="6.5332" width="6.5333" height="6.5333" fill="black"/>
<rect width="6.5333" height="6.5333" transform="matrix(1 0 0 -1 32.668 52.2666)" fill="black"/>
<rect x="45.7324" y="19.6001" width="6.5333" height="6.5333" fill="black"/>
<rect x="52.2676" y="26.1338" width="6.5333" height="6.5333" fill="black"/>
<rect width="6.5333" height="6.5333" transform="matrix(1 0 0 -1 45.7324 39.1997)" fill="black"/>
</svg>
