<svg width="344" height="63" viewBox="0 0 344 63" fill="none" xmlns="http://www.w3.org/2000/svg">
<circle cx="28" cy="28" r="28" fill="#955BFE" fill-opacity="0.75"/>
<circle cx="56" cy="28" r="28" fill="#9AE723" fill-opacity="0.75"/>
<path d="M114.664 44.8238L108.454 18.4658L109.903 18.1208V51.9998H99.8984V3.00977H111.628L118.942 30.9548H116.458L123.772 3.00977H135.502V51.9998H125.497V18.1208L126.946 18.4658L120.736 44.8238H114.664Z" fill="#ffffff"/>
<path d="M155.071 52.8278C151.621 52.8278 148.539 52.0458 145.825 50.4818C143.157 48.8718 141.064 46.6178 139.546 43.7198C138.028 40.8218 137.269 37.3948 137.269 33.4388C137.269 29.6208 138.005 26.2628 139.477 23.3648C140.995 20.4208 143.088 18.1438 145.756 16.5338C148.424 14.8778 151.506 14.0498 155.002 14.0498C158.452 14.0498 161.511 14.8778 164.179 16.5338C166.847 18.1438 168.94 20.4208 170.458 23.3648C171.976 26.3088 172.735 29.7358 172.735 33.6458V36.1988H148.033C148.263 38.5908 149.022 40.4308 150.31 41.7188C151.644 43.0068 153.323 43.6508 155.347 43.6508C156.865 43.6508 158.153 43.3058 159.211 42.6158C160.315 41.8798 161.074 40.8908 161.488 39.6488L171.907 40.4078C170.573 44.4558 168.503 47.5378 165.697 49.6538C162.891 51.7698 159.349 52.8278 155.071 52.8278ZM148.24 29.4368H161.419C161.235 27.3668 160.545 25.8258 159.349 24.8138C158.199 23.7558 156.704 23.2268 154.864 23.2268C153.024 23.2268 151.529 23.7558 150.379 24.8138C149.229 25.8718 148.516 27.4128 148.24 29.4368Z" fill="#ffffff"/>
<path d="M178.646 51.9998V14.8778H186.236L186.995 24.6758L186.374 24.7448C186.742 21.4788 187.662 19.0178 189.134 17.3618C190.606 15.7058 192.837 14.8778 195.827 14.8778H201.383L204.383 23.2958H196.724C194.976 23.2958 193.55 23.5948 192.446 24.1928C191.342 24.7448 190.514 25.5958 189.962 26.7458C189.456 27.8498 189.203 29.2758 189.203 31.0238V51.9998H178.646ZM174.021 51.9998V43.7888H198.381L200.381 51.9998H174.021ZM174.021 23.0888V14.8778H185.063V23.0888H174.021Z" fill="#ffffff"/>
<path d="M221.952 52.8278C218.364 52.8278 215.213 52.0228 212.499 50.4128C209.785 48.7568 207.646 46.4798 206.082 43.5818C204.518 40.6378 203.736 37.2568 203.736 33.4388C203.736 29.6208 204.518 26.2628 206.082 23.3648C207.646 20.4208 209.785 18.1438 212.499 16.5338C215.213 14.8778 218.364 14.0498 221.952 14.0498C224.896 14.0498 227.587 14.6708 230.025 15.9128C232.509 17.1088 234.556 18.8108 236.166 21.0188C237.776 23.1808 238.765 25.7568 239.133 28.7468L228.714 29.2298C228.3 27.2978 227.518 25.8258 226.368 24.8138C225.218 23.7558 223.769 23.2268 222.021 23.2268C219.721 23.2268 217.927 24.1468 216.639 25.9868C215.351 27.7808 214.707 30.2648 214.707 33.4388C214.707 36.6128 215.351 39.1198 216.639 40.9598C217.927 42.7538 219.721 43.6508 222.021 43.6508C223.769 43.6508 225.218 43.1218 226.368 42.0638C227.564 40.9598 228.369 39.3958 228.783 37.3718L239.202 37.9238C238.834 40.8678 237.845 43.4668 236.235 45.7208C234.671 47.9748 232.647 49.7228 230.163 50.9648C227.679 52.2068 224.942 52.8278 221.952 52.8278Z" fill="#ffffff"/>
<path d="M252.734 52.8278C249.284 52.8278 246.57 51.7008 244.592 49.4468C242.66 47.1468 241.694 43.7888 241.694 39.3728V14.8778H252.251V36.6818C252.251 39.3038 252.665 41.1898 253.493 42.3398C254.321 43.4438 255.517 43.9958 257.081 43.9958C258.645 43.9958 260.002 43.3518 261.152 42.0638C262.348 40.7298 262.946 38.7978 262.946 36.2678V14.8778H273.503V51.9998H263.843L263.567 40.8218L264.74 41.0288C264.28 44.8008 262.992 47.7218 260.876 49.7918C258.806 51.8158 256.092 52.8278 252.734 52.8278Z" fill="#ffffff"/>
<path d="M281.345 51.9998V14.8778H288.935L289.694 24.6758L289.073 24.7448C289.441 21.4788 290.361 19.0178 291.833 17.3618C293.305 15.7058 292.536 14.8778 295.526 14.8778H304.082L307.082 23.2958H299.423C297.675 23.2958 296.249 23.5948 295.145 24.1928C294.041 24.7448 293.213 25.5958 292.661 26.7458C292.155 27.8498 291.902 29.2758 291.902 31.0238V51.9998H281.345ZM276.72 51.9998V43.7888H301.08L303.08 51.9998H276.72ZM276.72 23.0888V14.8778H287.762V23.0888H276.72Z" fill="#ffffff"/>
<path d="M311.851 62.3498V54.1388H317.095C318.963 54.1388 320.457 53.9778 321.578 53.6558C322.698 53.3338 323.52 52.6668 324.043 51.6548L325.5 49.1018H319L306.262 14.8778H317.095L325.513 38.9588L333.103 14.8778H344.005L329.998 54.8288C329.032 57.5428 327.56 59.4748 325.582 60.6248C323.65 61.7748 321.189 62.3498 318.199 62.3498H311.851Z" fill="#ffffff"/>
</svg>
