<svg width="304" height="304" viewBox="0 0 304 304" fill="none" xmlns="http://www.w3.org/2000/svg">
<path d="M141.013 3.4444C147.448 -1.14817 156.089 -1.14817 162.524 3.4444V3.4444C167.537 7.02193 174 7.87286 179.768 5.71464V5.71464C187.173 2.94407 195.519 5.18058 200.547 11.2822V11.2822C204.463 16.0352 210.486 18.53 216.616 17.9382V17.9382C224.485 17.1785 231.968 21.499 235.245 28.6939V28.6939C237.797 34.2985 242.97 38.2672 249.044 39.2821V39.2821C256.842 40.5849 262.952 46.6951 264.255 54.4929V54.4929C265.269 60.5671 269.238 65.7392 274.843 68.2917V68.2917C282.038 71.5683 286.358 79.0518 285.598 86.921V86.921C285.007 93.051 287.501 99.074 292.254 102.99V102.99C298.356 108.017 300.593 116.364 297.822 123.768V123.768C295.664 129.536 296.515 136 300.092 141.013V141.013C304.685 147.448 304.685 156.089 300.092 162.524V162.524C296.515 167.537 295.664 174 297.822 179.768V179.768C300.593 187.173 298.356 195.519 292.255 200.547V200.547C287.501 204.463 285.007 210.486 285.598 216.616V216.616C286.358 224.485 282.038 231.968 274.843 235.245V235.245C269.238 237.797 265.269 242.969 264.255 249.044V249.044C262.952 256.841 256.842 262.952 249.044 264.255V264.255C242.97 265.269 237.797 269.238 235.245 274.843V274.843C231.968 282.038 224.485 286.358 216.616 285.598V285.598C210.486 285.007 204.463 287.501 200.547 292.254V292.254C195.519 298.356 187.173 300.593 179.768 297.822V297.822C174 295.664 167.537 296.515 162.524 300.092V300.092C156.089 304.685 147.448 304.685 141.013 300.092V300.092C136 296.515 129.536 295.664 123.768 297.822V297.822C116.364 300.593 108.017 298.356 102.99 292.254V292.254C99.0741 287.501 93.0511 285.007 86.9211 285.598V285.598C79.0519 286.358 71.5684 282.038 68.2917 274.843V274.843C65.7393 269.238 60.5672 265.269 54.4929 264.255V264.255C46.6952 262.952 40.585 256.841 39.2821 249.044V249.044C38.2672 242.969 34.2986 237.797 28.6939 235.245V235.245C21.4991 231.968 17.1785 224.485 17.9383 216.616V216.616C18.5301 210.486 16.0353 204.463 11.2822 200.547V200.547C5.18064 195.519 2.94413 187.173 5.7147 179.768V179.768C7.87292 174 7.02199 167.537 3.44446 162.524V162.524C-1.14811 156.089 -1.14811 147.448 3.44446 141.013V141.013C7.02199 136 7.87292 129.536 5.7147 123.768V123.768C2.94413 116.364 5.18064 108.017 11.2822 102.99V102.99C16.0353 99.074 18.5301 93.051 17.9383 86.921V86.921C17.1785 79.0518 21.4991 71.5683 28.6939 68.2917V68.2917C34.2986 65.7392 38.2672 60.5671 39.2821 54.4929V54.4929C40.585 46.6951 46.6952 40.5849 54.4929 39.2821V39.2821C60.5672 38.2672 65.7393 34.2985 68.2917 28.6939V28.6939C71.5684 21.499 79.0519 17.1785 86.9211 17.9382V17.9382C93.0511 18.53 99.0741 16.0352 102.99 11.2822V11.2822C108.017 5.18058 116.364 2.94407 123.768 5.71464V5.71464C129.536 7.87286 136 7.02193 141.013 3.4444V3.4444Z" fill="black"/>
</svg>
