<svg width="202" height="202" viewBox="0 0 202 202" fill="none" xmlns="http://www.w3.org/2000/svg">
<path d="M111.78 5.29437C147.339 0.0088823 165.118 -2.63386 177.807 3.70226C186.533 8.05938 193.608 15.1337 197.965 23.8598C204.301 36.5494 201.658 54.3285 196.373 89.8867V89.8867C195.73 94.2079 195.409 96.3686 195.298 98.5406C195.22 100.068 195.22 101.599 195.298 103.127C195.409 105.299 195.73 107.459 196.373 111.78V111.78C201.658 147.339 204.301 165.118 197.965 177.807C193.608 186.533 186.533 193.608 177.807 197.965C165.118 204.301 147.339 201.658 111.78 196.373V196.373C107.459 195.73 105.299 195.409 103.126 195.298C101.599 195.221 100.068 195.221 98.5406 195.298C96.3686 195.409 94.2079 195.73 89.8867 196.373V196.373C54.3285 201.658 36.5494 204.301 23.8598 197.965C15.1337 193.608 8.05938 186.533 3.70226 177.807C-2.63387 165.118 0.00887611 147.339 5.29437 111.78V111.78C5.93669 107.459 6.25786 105.299 6.36868 103.127C6.44662 101.599 6.44662 100.068 6.36868 98.5406C6.25786 96.3686 5.93669 94.2079 5.29437 89.8867V89.8867C0.00887673 54.3285 -2.63387 36.5494 3.70225 23.8598C8.05937 15.1337 15.1337 8.05938 23.8598 3.70226C36.5494 -2.63386 54.3285 0.00888234 89.8867 5.29437V5.29437C94.2079 5.9367 96.3685 6.25786 98.5406 6.36868C100.068 6.44662 101.599 6.44662 103.127 6.36868C105.299 6.25786 107.459 5.9367 111.78 5.29437V5.29437Z" fill="black"/>
</svg>
