<?xml version="1.0" encoding="UTF-8"?> <svg xmlns="http://www.w3.org/2000/svg" xmlns:xlink="http://www.w3.org/1999/xlink" width="128" height="128" viewBox="0 0 128 128"><defs><linearGradient id="linear-gradient" x1="0.473" y1="1" x2="0.5" gradientUnits="objectBoundingBox"><stop offset="0" stop-color="#ffb074"></stop><stop offset="0.402" stop-color="#ff5353"></stop><stop offset="1" stop-color="#6050ff"></stop></linearGradient><radialGradient id="radial-gradient" cx="1.045" cy="0.664" r="0.839" gradientTransform="matrix(0.957, 0.29, -0.188, 0.622, 0.17, -0.052)" gradientUnits="objectBoundingBox"><stop offset="0" stop-color="#81fffb"></stop><stop offset="1" stop-color="#41ff8d" stop-opacity="0"></stop></radialGradient></defs><g id="uicrux-symbol-new" transform="translate(0.001 -0.005)"><path id="Subtraction_14" data-name="Subtraction 14" d="M64,128a64.775,64.775,0,0,1-9.1-.642L64,112l9.1,15.354A64.758,64.758,0,0,1,64,128Zm14.433-1.634,0,0L64,102,49.565,126.362a63.429,63.429,0,0,1-12.323-4.208L64,77l26.757,45.16a63.642,63.642,0,0,1-12.32,4.21ZM95.3,119.834l0,0L64,66.99,32.695,119.827a63.917,63.917,0,0,1-10.468-7.341L64,41.987l41.772,70.5a64.282,64.282,0,0,1-10.463,7.343ZM18.412,108.925l0,0A64.744,64.744,0,0,1,9.924,98.241L64,6.979l54.075,91.266a64.371,64.371,0,0,1-8.486,10.672L64,31.981,18.415,108.92Zm102.573-15.77,0-.008L65.794,0A64.005,64.005,0,0,1,82.135,2.581l44.424,74.978a63.607,63.607,0,0,1-5.569,15.588Zm-113.971,0,0-.008A63.58,63.58,0,0,1,1.44,77.555L45.865,2.581A64,64,0,0,1,62.207,0L7.019,93.147ZM.241,69.581v-.015C.081,67.722,0,65.845,0,63.987A64.058,64.058,0,0,1,38.3,5.345L.249,69.568Zm127.518,0-.008-.013L89.7,5.345A64.058,64.058,0,0,1,128,63.987c0,1.857-.08,3.734-.24,5.578Z" transform="translate(-0.001 0.005)" fill="url(#linear-gradient)"></path><path id="Subtraction_15" data-name="Subtraction 15" d="M64,128a64.775,64.775,0,0,1-9.1-.642L64,112l9.1,15.354A64.758,64.758,0,0,1,64,128Zm14.433-1.634,0,0L64,102,49.565,126.362a63.429,63.429,0,0,1-12.323-4.208L64,77l26.757,45.16a63.642,63.642,0,0,1-12.32,4.21ZM95.3,119.834l0,0L64,66.99,32.695,119.827a63.917,63.917,0,0,1-10.468-7.341L64,41.987l41.772,70.5a64.282,64.282,0,0,1-10.463,7.343ZM18.412,108.925l0,0A64.744,64.744,0,0,1,9.924,98.241L64,6.979l54.075,91.266a64.371,64.371,0,0,1-8.486,10.672L64,31.981,18.415,108.92Zm102.573-15.77,0-.008L65.794,0A64.005,64.005,0,0,1,82.135,2.581l44.424,74.978a63.607,63.607,0,0,1-5.569,15.588Zm-113.971,0,0-.008A63.58,63.58,0,0,1,1.44,77.555L45.865,2.581A64,64,0,0,1,62.207,0L7.019,93.147ZM.241,69.581v-.015C.081,67.722,0,65.845,0,63.987A64.058,64.058,0,0,1,38.3,5.345L.249,69.568Zm127.518,0-.008-.013L89.7,5.345A64.058,64.058,0,0,1,128,63.987c0,1.857-.08,3.734-.24,5.578Z" transform="translate(-0.001 0.005)" opacity="0.9" fill="url(#radial-gradient)"></path></g></svg> 